PathFileType	4	(X/Y/Z)	/Users/itak/Documents/Research/Walk-IL/dataset/trc/00136_00007.trc
DataRate	CameraRate	NumFrames	NumMarkers	Units	OrigDataRate	OrigDataStartFrame	OrigNumFrames
100.000000	100.000000	4	53	mm	100.000000	277	740
Frame#	Time	RPSI			LPSI			L3			STRN			T10			C7			CLAV			RBAK			LBAK			LSHO			LUPA			LAEL			LAOL			LWTS			LWPS			LFRA			LIFD			LHPS			LHTS			RSHO			RUPA			RAEL			RAOL			RWTS			RWPS			RFRA			RIFD			RHTS			RHPS			RBHD			LFHD			RFHD			LBHD			LHIP			RHIP			RASI			LASI			LKNE			LTHI			LANK			LTIP			LTOE			LMT1			LMT5			LHEE			RKNE			RTHI			RANK			RTIP			RTOE			RMT1			RMT5			RHEE			
		X1	Y1	Z1	X2	Y2	Z2	X3	Y3	Z3	X4	Y4	Z4	X5	Y5	Z5	X6	Y6	Z6	X7	Y7	Z7	X8	Y8	Z8	X9	Y9	Z9	X10	Y10	Z10	X11	Y11	Z11	X12	Y12	Z12	X13	Y13	Z13	X14	Y14	Z14	X15	Y15	Z15	X16	Y16	Z16	X17	Y17	Z17	X18	Y18	Z18	X19	Y19	Z19	X20	Y20	Z20	X21	Y21	Z21	X22	Y22	Z22	X23	Y23	Z23	X24	Y24	Z24	X25	Y25	Z25	X26	Y26	Z26	X27	Y27	Z27	X28	Y28	Z28	X29	Y29	Z29	X30	Y30	Z30	X31	Y31	Z31	X32	Y32	Z32	X33	Y33	Z33	X34	Y34	Z34	X35	Y35	Z35	X36	Y36	Z36	X37	Y37	Z37	X38	Y38	Z38	X39	Y39	Z39	X40	Y40	Z40	X41	Y41	Z41	X42	Y42	Z42	X43	Y43	Z43	X44	Y44	Z44	X45	Y45	Z45	X46	Y46	Z46	X47	Y47	Z47	X48	Y48	Z48	X49	Y49	Z49	X50	Y50	Z50	X51	Y51	Z51	X52	Y52	Z52	X53	Y53	Z53	

278	2.77	-878.4841918945312	1102.232421875	293.9431457519531	-1013.078918457031	1107.544189453125	289.3952331542969	-947.1961669921875	1138.566650390625	298.1026306152344	-932.7915649414062	1345.62548828125	88.00293731689453	-948.4985961914062	1288.473266601562	340.2926635742188	-949.0838012695312	1581.536254882812	317.4566345214844	-930.1752319335938	1478.8115234375	130.6399841308594	-876.212158203125	1388.6748046875	366.6132507324219	-1050.630249023438	1568.452880859375	315.9169311523438	-1113.021484375	1562.807006835938	222.4020233154297	-1189.235595703125	1432.828125	237.3160095214844	-1217.342651367188	1214.427124023438	226.7660522460938	-1162.38330078125	1200.972290039062	293.4657592773438	-1188.047485351562	948.104736328125	142.4293823242188	-1216.419189453125	930.8633422851562	225.3141479492188	-1227.04296875	1097.990600585938	215.9474639892578	-1179.66943359375	752.7744750976562	146.4091339111328	-1221.990234375	854.0631713867188	202.4241180419922	-1205.109497070312	858.12646484375	134.3014984130859	-764.2186279296875	1551.187866210938	277.6131896972656	-707.9234619140625	1473.920288085938	299.8642883300781	-703.8381958007812	1180.102661132812	307.2096252441406	-798.9341430664062	1182.762573242188	297.0763854980469	-697.5348510742188	945.2808227539062	150.3139190673828	-682.6583862304688	923.1174926757812	228.9264831542969	-686.9147338867188	1107.288208007812	283.1416625976562	-722.8836059570312	755.099609375	110.3405685424805	-691.77685546875	838.407958984375	115.7337036132812	-677.1015014648438	825.0833129882812	186.9641265869141	-863.574951171875	1749.364013671875	302.0635986328125	-911.9869995117188	1824.6376953125	100.1575698852539	-793.7222290039062	1808.191162109375	149.5230865478516	-988.8602905273438	1770.91748046875	258.9494018554688	-1121.3408203125	1024.3828125	191.8136138916016	-764.516845703125	1003.843505859375	162.1707763671875	-811.498779296875	1082.072875976562	85.43191528320312	-1076.983276367188	1091.792358398438	85.75009155273438	-1147.563598632812	522.2010498046875	71.50376892089844	-1155.650146484375	673.247802734375	119.8424606323242	-1210.150512695312	201.9969329833984	502.779052734375	-1201.669799804688	383.5152282714844	304.2315979003906	-1165.925537109375	42.65838241577148	345.0256958007812	-1126.298217773438	94.98243713378906	394.7097778320312	-1235.20068359375	105.5074768066406	430.079833984375	-1145.7431640625	253.5540466308594	541.82666015625	-892.2194213867188	519.9003295898438	126.9396896362305	-804.939453125	791.6441040039062	126.6206665039062	-1024.828247070312	25.61412811279297	201.7039489746094	-909.58740234375	385.2061767578125	144.9001617431641	-1036.948364257812	43.06875991821289	-35.20667266845703	-1090.805908203125	42.1810417175293	16.47176551818848	-983.9054565429688	40.72295379638672	73.79469299316406	-1079.814331054688	28.10815620422363	251.2965698242188	
279	2.78	-878.7703857421875	1102.66796875	286.8494567871094	-1013.254516601562	1108.314575195312	279.9684448242188	-947.3576049804688	1138.849365234375	289.8289794921875	-929.8571166992188	1346.1572265625	79.69231414794922	-948.8165893554688	1289.044555664062	331.7508239746094	-948.8475952148438	1582.171264648438	308.6746520996094	-928.0675659179688	1479.390258789062	122.1882476806641	-876.3495483398438	1389.458984375	358.8596801757812	-1050.37841796875	1569.142456054688	306.0960083007812	-1111.9462890625	1563.3046875	212.05908203125	-1188.187622070312	1433.28271484375	226.9157867431641	-1215.826904296875	1214.798706054688	217.7633056640625	-1160.919555664062	1201.83203125	284.5592041015625	-1185.944702148438	948.2205810546875	134.5227203369141	-1214.087280273438	931.17138671875	217.4966888427734	-1225.265747070312	1098.29931640625	207.4644622802734	-1176.618896484375	752.9502563476562	139.2406005859375	-1219.354370117188	854.2207641601562	194.9302368164062	-1202.631103515625	858.107421875	126.7816619873047	-763.7001953125	1552.05859375	270.7466430664062	-707.382568359375	1474.8193359375	293.3294982910156	-702.2396850585938	1180.755493164062	298.75537109375	-797.31982421875	1183.303100585938	288.3156433105469	-694.0131225585938	948.1559448242188	138.675537109375	-679.5510864257812	924.9100952148438	216.9972686767578	-684.8842163085938	1108.226928710938	273.8584594726562	-717.8873291015625	758.431396484375	95.71160125732422	-687.377197265625	841.8829956054688	102.5672760009766	-673.115966796875	827.6196899414062	173.6661834716797	-863.1272583007812	1750.216064453125	293.6428833007812	-910.4270629882812	1825.0341796875	91.33655548095703	-792.4042358398438	1808.73046875	141.3897094726562	-988.1494750976562	1771.614624023438	249.8200073242188	-1119.719482421875	1025.30908203125	180.3323516845703	-762.105712890625	1004.214111328125	156.8734588623047	-808.0177001953125	1082.22412109375	79.51535797119141	-1073.662231445312	1092.738403320312	75.15497589111328	-1143.413330078125	525.04345703125	51.26195907592773	-1152.689575195312	675.1641235351562	102.1560516357422	-1215.97998046875	196.5296478271484	473.6879577636719	-1202.36328125	382.3980407714844	280.1780395507812	-1173.594604492188	43.36616516113281	309.8661193847656	-1133.14013671875	92.11826324462891	362.5447387695312	-1242.8095703125	104.7988815307617	395.8632202148438	-1151.552856445312	244.8690795898438	516.2813720703125	-891.1032104492188	519.525634765625	125.0600128173828	-803.5567626953125	791.1328125	123.0216293334961	-1024.8310546875	25.68623161315918	201.6997680664062	-909.0277099609375	385.0534973144531	143.7132263183594	-1036.955322265625	42.94826889038086	-35.25540542602539	-1090.737548828125	42.36573791503906	16.45015525817871	-983.8038940429688	40.65023803710938	73.80026245117188	-1079.7841796875	28.4317684173584	251.2695922851562	
280	2.79	-879.0975952148438	1103.1201171875	279.6600952148438	-1013.466247558594	1109.08154296875	270.5352172851562	-947.5859375	1139.15771484375	281.6367492675781	-926.7957153320312	1346.657958984375	71.46401214599609	-949.1980590820312	1289.628173828125	323.2577514648438	-948.6038208007812	1582.8173828125	299.904052734375	-925.8385620117188	1479.935668945312	113.7899627685547	-876.5211791992188	1390.263061523438	351.1791076660156	-1050.113525390625	1569.818237304688	296.1758117675781	-1110.779541015625	1563.774536132812	201.593505859375	-1187.091796875	1433.738891601562	216.3823394775391	-1214.37451171875	1215.18994140625	208.6425170898438	-1159.637084960938	1202.70947265625	275.6510620117188	-1183.793212890625	948.4269409179688	126.3748016357422	-1211.845458984375	931.4775390625	209.3837738037109	-1223.5634765625	1098.6328125	198.8081817626953	-1173.213989257812	753.2254028320312	131.7530975341797	-1216.6552734375	854.3665771484375	187.0844116210938	-1199.924926757812	858.1337280273438	118.9662170410156	-763.1756591796875	1552.938354492188	264.0132751464844	-706.8637084960938	1475.73291015625	287.0068969726562	-700.7072143554688	1181.424926757812	290.6484680175781	-795.7781982421875	1183.910766601562	279.8910827636719	-690.4308471679688	951.1838989257812	127.3245468139648	-676.4520874023438	926.798583984375	205.3250885009766	-682.8999633789062	1109.191162109375	264.9264831542969	-712.815185546875	762.02001953125	81.2200927734375	-682.8846435546875	845.5702514648438	89.61933898925781	-669.1072387695312	830.297119140625	160.5719299316406	-862.6077270507812	1751.046020507812	285.2537231445312	-908.7596435546875	1825.408569335938	82.52883911132812	-790.9967651367188	1809.244873046875	133.2911834716797	-987.3718872070312	1772.298828125	240.6950378417969	-1118.052490234375	1026.305786132812	168.8481597900391	-759.6321411132812	1004.667297363281	151.7477264404297	-804.5180053710938	1082.36279296875	73.79979705810547	-1070.183837890625	1093.68896484375	64.6436767578125	-1138.74365234375	528.0294189453125	31.48210144042969	-1149.415405273438	677.2083740234375	84.70726776123047	-1221.120361328125	190.075439453125	443.76025390625	-1202.587036132812	380.9167785644531	256.0278015136719	-1179.993286132812	43.9569206237793	273.77490234375	-1139.103881835938	88.94954681396484	329.3963317871094	-1249.419921875	103.5522918701172	360.7012329101562	-1157.093872070312	235.18701171875	489.8129577636719	-890.0120849609375	519.18798828125	123.3171463012695	-802.1690063476562	790.5737915039062	119.6428604125977	-1024.785034179688	25.81679153442383	201.7136840820312	-908.5167846679688	384.9479370117188	142.6941680908203	-1036.928466796875	42.8847770690918	-35.29574584960938	-1090.655029296875	42.58838653564453	16.42500305175781	-983.6944580078125	40.57688140869141	73.80977630615234	-1079.732421875	28.81804847717285	251.2275543212891	
281	2.8	-879.4768676757812	1103.55810546875	272.3861694335938	-1013.721435546875	1109.843872070312	261.0900268554688	-947.8948364257812	1139.475463867188	273.5052795410156	-923.6190185546875	1347.11181640625	63.31491088867188	-949.6560668945312	1290.205078125	314.8063659667969	-948.3436889648438	1583.45849609375	291.1456298828125	-923.5025024414062	1480.434692382812	105.4397277832031	-876.712890625	1391.074462890625	343.5656433105469	-1049.817504882812	1570.451416015625	286.1781005859375	-1109.523681640625	1564.197387695312	191.03173828125	-1185.934936523438	1434.16796875	205.7344207763672	-1212.96533203125	1215.576904296875	199.3687286376953	-1158.530151367188	1203.57421875	266.7123107910156	-1181.560302734375	948.6889038085938	117.9815063476562	-1209.713623046875	931.76513671875	200.9577026367188	-1221.917602539062	1098.969116210938	189.9388732910156	-1169.510375976562	753.5601806640625	123.9775314331055	-1213.945678710938	854.4946899414062	178.8689422607422	-1197.008666992188	858.1918334960938	110.8431243896484	-762.6345825195312	1553.814697265625	257.3876647949219	-706.359619140625	1476.6474609375	280.8641662597656	-699.2350463867188	1182.095092773438	282.8665771484375	-794.2990112304688	1184.552368164062	271.7857971191406	-686.811767578125	954.3382568359375	116.2530975341797	-673.368408203125	928.7650146484375	193.9101867675781	-680.961669921875	1110.162231445312	256.326416015625	-707.7090454101562	765.8378295898438	66.88978576660156	-678.3394775390625	849.4374389648438	76.90079498291016	-665.09326171875	833.0899658203125	147.6890258789062	-862.0195922851562	1751.82958984375	276.8883361816406	-906.982666015625	1825.757202148438	73.73757934570312	-789.4992065429688	1809.728759765625	125.2314071655273	-986.5292358398438	1772.9521484375	231.5670166015625	-1116.35302734375	1027.346557617188	157.3171844482422	-757.2501831054688	1005.097351074219	146.8763885498047	-801.0146484375	1082.47265625	68.28626251220703	-1066.534545898438	1094.618896484375	54.2088623046875	-1133.572509765625	531.114501953125	12.18377876281738	-1145.844970703125	679.3451538085938	67.5003662109375	-1225.600219726562	182.8707122802734	412.9214477539062	-1202.325805664062	379.0679931640625	231.7878570556641	-1184.9580078125	44.43918228149414	236.9081726074219	-1144.039916992188	85.55854797363281	295.3761596679688	-1254.876708984375	101.7815856933594	324.7328796386719	-1162.254760742188	224.6617431640625	462.398681640625	-888.9524536132812	518.8931884765625	121.6879043579102	-800.7568969726562	789.9888916015625	116.4867324829102	-1024.712768554688	26.00944519042969	201.7444458007812	-908.048583984375	384.8909912109375	141.8239440917969	-1036.867065429688	42.87117004394531	-35.33465576171875	-1090.55859375	42.84041213989258	16.38798522949219	-983.5836791992188	40.50651168823242	73.82205963134766	-1079.6728515625	29.26934432983398	251.1614837646484	
